<svg id="Group_3" data-name="Group 3" xmlns="http://www.w3.org/2000/svg" width="28.573" height="29.157" viewBox="0 0 28.573 29.157">
  <g id="Group_2" data-name="Group 2" transform="translate(0 0)">
    <path id="Path_7" data-name="Path 7" d="M1072.367,1325.654a13.971,13.971,0,0,1,2.057-3.058,14.488,14.488,0,0,1,6.324-4.219,14.177,14.177,0,0,1,3.408-.7,14.446,14.446,0,0,1,6.862,1.055,13.963,13.963,0,0,1,4.042,2.607c.066.06.072.093.006.158q-2.015,2.01-4.024,4.026c-.077.078-.114.049-.175-.008a7.594,7.594,0,0,0-3.116-1.767,8.48,8.48,0,0,0-8.575,2.416,8.808,8.808,0,0,0-1.911,3.168c-.01.029-.025.057-.037.086-.067.017-.109-.029-.153-.063q-2.306-1.791-4.614-3.578A.2.2,0,0,1,1072.367,1325.654Z" transform="translate(-1070.81 -1317.622)" fill="#0081ab"/>
    <path id="Path_8" data-name="Path 8" d="M1077.226,1418.7a10.644,10.644,0,0,0,.662,1.48,8.592,8.592,0,0,0,8.729,4.444,8.556,8.556,0,0,0,3.073-.938c.218-.116.426-.249.64-.374a.232.232,0,0,1,.155.067q2.214,1.72,4.43,3.439c.049.038.109.068.116.141a11.456,11.456,0,0,1-1.983,1.505,13.8,13.8,0,0,1-5.4,1.879,15.81,15.81,0,0,1-3.31.116,14.367,14.367,0,0,1-6.14-1.86,14.546,14.546,0,0,1-5.809-6.079c-.01-.018-.016-.039-.023-.058.011-.064.061-.1.106-.131q1.466-1.134,2.931-2.27c.553-.428,1.1-.859,1.657-1.287C1077.109,1418.739,1077.154,1418.689,1077.226,1418.7Z" transform="translate(-1070.81 -1401.345)" fill="#0081ab"/>
    <path id="Path_9" data-name="Path 9" d="M1157.833,1400.74l-3.341-2.594-1.36-1.053a7.715,7.715,0,0,0,1.419-1.272,6.709,6.709,0,0,0,1.457-2.992c.026-.122.007-.151-.119-.15-.6.006-1.2,0-1.8,0q-2.862,0-5.724,0c-.137,0-.176-.031-.175-.173q.008-2.648,0-5.3c0-.14.034-.173.174-.173q6.7.006,13.393,0c.136,0,.176.041.2.169a16.738,16.738,0,0,1,.215,3.59,14.55,14.55,0,0,1-2.682,8.094A11.491,11.491,0,0,1,1157.833,1400.74Z" transform="translate(-1133.611 -1375.123)" fill="#0081ab"/>
    <path id="Path_10" data-name="Path 10" d="M1069.715,1373.725l-2.974,2.3-1.885,1.462a13.878,13.878,0,0,1-1.082-2.857,14.35,14.35,0,0,1-.47-4.051,14.537,14.537,0,0,1,1.526-6.141.365.365,0,0,1,.026-.04l2.64,2.049,2.181,1.688a.424.424,0,0,0,.04.025,11.671,11.671,0,0,0-.354,1.5,8.621,8.621,0,0,0,.309,3.9C1069.689,1373.613,1069.7,1373.669,1069.715,1373.725Z" transform="translate(-1063.299 -1356.367)" fill="#0081ab"/>
  </g>
</svg>
