<svg xmlns="http://www.w3.org/2000/svg" width="29" height="29" viewBox="0 0 29 29">
  <g id="Group_33" data-name="Group 33" transform="translate(-3252 -601)">
    <path id="Path_66" data-name="Path 66" d="M3281,615.5a14.5,14.5,0,1,0-21.132,12.9v-3.744a6.561,6.561,0,0,1,6.561-6.561h0a6.561,6.561,0,0,1,6.561,6.561v3.816A14.5,14.5,0,0,0,3281,615.5Zm-14.572,1.583a5.327,5.327,0,1,1,5.327-5.327A5.327,5.327,0,0,1,3266.428,617.083Z" fill="#cbcbcb"/>
    <circle id="Ellipse_8" data-name="Ellipse 8" cx="5.327" cy="5.327" r="5.327" transform="translate(3261.101 606.429)" fill="#fff"/>
    <path id="Path_67" data-name="Path 67" d="M3368.708,840.294h0a6.561,6.561,0,0,0-6.561,6.561V850.6a14.522,14.522,0,0,0,13.122.072v-3.816A6.561,6.561,0,0,0,3368.708,840.294Z" transform="translate(-102.279 -222.202)" fill="#fff"/>
  </g>
</svg>
