<svg xmlns="http://www.w3.org/2000/svg" width="11.403" height="14.985" viewBox="0 0 11.403 14.985">
  <path id="Path_82" data-name="Path 82" d="M2496.948,1539.7a5.7,5.7,0,1,0-11.395,0c0,.012,0,.023,0,.035h0a3.232,3.232,0,0,0,.11,1.082,5.658,5.658,0,0,0,.464,1.377,22.594,22.594,0,0,0,5.089,6.795h.06a22.969,22.969,0,0,0,5.036-6.674,5.651,5.651,0,0,0,.575-1.782,3.285,3.285,0,0,0,.059-.725C2496.946,1539.768,2496.948,1539.733,2496.948,1539.7Zm-5.7,3.418a3.487,3.487,0,1,1,3.487-3.487A3.487,3.487,0,0,1,2491.247,1543.116Z" transform="translate(-2485.545 -1534)" fill="#1ca8d3"/>
</svg>
