<svg xmlns="http://www.w3.org/2000/svg" width="25.792" height="21.592" viewBox="0 0 25.792 21.592">
  <path id="Path_6" data-name="Path 6" d="M780.155,1360.5a11.829,11.829,0,0,0,7.27-2.244,3.083,3.083,0,0,0-.921-.293,5.488,5.488,0,0,1-3.687-3.071c-.224-.483-.181-.544.359-.54.374,0,.747,0,1.2,0a1.149,1.149,0,0,0-.54-.392,5.762,5.762,0,0,1-3.12-4.557c-.041-.345.018-.442.377-.336a7.348,7.348,0,0,0,1.554.352c-.213-.262-.4-.481-.572-.706a5.725,5.725,0,0,1-.826-6.033c.141-.35.241-.357.491-.08a15.529,15.529,0,0,0,9.078,5.122c.4.07.814.1,1.217.176.356.065.491-.088.49-.422a8.969,8.969,0,0,1,.151-1.923,5.338,5.338,0,0,1,8.364-3.269,2.111,2.111,0,0,0,2.407.238,17.569,17.569,0,0,1,1.818-.693,7.112,7.112,0,0,1-1.661,2.648.682.682,0,0,0,.477-.019c.523-.139,1.047-.273,1.57-.415.1-.028.2-.073.273.04s-.04.184-.107.252c-.483.49-.943,1.008-1.459,1.46a2.686,2.686,0,0,0-.954,1.993,14.966,14.966,0,0,1-2.367,7.938,15.489,15.489,0,0,1-13.322,7.131,15.109,15.109,0,0,1-7.312-2.1A.379.379,0,0,1,780.155,1360.5Z" transform="translate(-780.155 -1341.266)" fill="#0080ad"/>
</svg>
